# xmcd
#
# Track frame offsets: 
#        182
#        19850
#        36365
#        55795
#        70775
#        87807
#        106935
#        127232
#        144640
#        161175
#        177857
#        196112
#        212002
#        226235
#
# Disc length: 3248 seconds
#
# Revision: 0
# Processed by: cddbd v1.5.1PL0 Copyright (c) Steve Scherf et al.
# Submitted via: ExactAudioCopy v0.95a4
#
DISCID=c10cae0e
DTITLE=Roy Rogers - Rhythm and Groove
DYEAR=1996
DGENRE=Blues
TTITLE0=Vida's Place
TTITLE1=My Heart's Desire
TTITLE2=Call On Me
TTITLE3=Built For Comfort
TTITLE4=Feel My Care
TTITLE5=For The Love Of A Woman
TTITLE6=Shakin' Hands With The Devil
TTITLE7=Your Mind Is On Vacation
TTITLE8=Proud Man
TTITLE9=Blues For Brazil
TTITLE10=Love Me Or Leave Me
TTITLE11=Ever Since I Lost You
TTITLE12=Wrong Number
TTITLE13=Remembering You
EXTD=
EXTT0=
EXTT1=
EXTT2=
EXTT3=
EXTT4=
EXTT5=
EXTT6=
EXTT7=
EXTT8=
EXTT9=
EXTT10=
EXTT11=
EXTT12=
EXTT13=
PLAYORDER=
